<svg xmlns="http://www.w3.org/2000/svg" viewBox="954 -5967 54 54">
  <defs>
    <style>
      .cls-1 {
        fill: #fff;
      }
    </style>
  </defs>
  <g id="translate" transform="translate(933 -5988)">
    <path id="XMLID_16_" class="cls-1" d="M69.6,29.1H45L42.6,21H26.4A5.378,5.378,0,0,0,21,26.4V61.5a5.378,5.378,0,0,0,5.4,5.4H45.3L48,75H69.6A5.378,5.378,0,0,0,75,69.6V34.5A5.378,5.378,0,0,0,69.6,29.1ZM35,55a11,11,0,0,1,0-22,10.6,10.6,0,0,1,7.4,2.9l.2.2-3.3,3.2-.2-.3A6.017,6.017,0,0,0,35,37.4a6.5,6.5,0,0,0,0,13c3.7,0,5.3-2.3,5.7-3.9h-6V42.3H45.4v.2a9.151,9.151,0,0,1,.1,1.6C45.5,50.5,41.2,55,35,55Zm16.2-4.6A29.1,29.1,0,0,0,54.4,55L53,56.4Zm2.1-2.1H50.6l-.8-2.8H60.6a20.8,20.8,0,0,1-4.2,7.4A28.529,28.529,0,0,1,53.3,48.3Zm19,21.3a2.689,2.689,0,0,1-2.7,2.7H50.7l5.4-5.4-2.2-7.5,2.5-2.5,7.2,7.3,2-2L58.3,55a24.673,24.673,0,0,0,5.2-9.5h3.4V42.7H57.1V39.9H54.3v2.8H49L45.8,31.8H69.6a2.689,2.689,0,0,1,2.7,2.7V69.6Z"/>
  </g>
</svg>
